<svg xmlns="http://www.w3.org/2000/svg" viewBox="0 0 12.21 18.464" height="69.787" width="46.147"><defs><clipPath id="a" clipPathUnits="userSpaceOnUse"><path d="M389.46 153.23h26.94v-44.67h-26.94z"/></clipPath></defs><g clip-path="url(#a)" transform="matrix(.35278 0 0 -.35278 -136.04 55.409)"><path d="M402.93 115.84a2.61 2.61 0 012.6 2.61c0 .96-.52 1.79-1.3 2.24v2.97c0 .72-.58 1.31-1.3 1.31-.72 0-1.31-.59-1.31-1.31v-2.97a2.6 2.6 0 01-1.3-2.24c0-1.44 1.17-2.61 2.61-2.61m13.47 16.4v-23.68h-26.94v23.68h20.18z" fill="#ff9e00"/><path d="M409.64 146.55v-14.31h-13.43v14.23a6.766 6.766 0 006.76 6.76c1.84 0 3.51-.75 4.71-1.96a6.64 6.64 0 001.96-4.72" fill="#fafbfc"/><path d="M401.62 120.69v2.97c0 .72.59 1.31 1.31 1.31.72 0 1.3-.59 1.3-1.31v-2.97c.78-.45 1.3-1.28 1.3-2.24a2.61 2.61 0 00-2.6-2.61c-1.44 0-2.61 1.17-2.61 2.61 0 .96.53 1.79 1.3 2.24" fill="#6c9814"/></g><path d="M8.472 8.758h2.385v8.354H1.353V8.758h2.381m4.738 0H3.734v-5.02a2.387 2.387 0 012.385-2.385c.649 0 1.238.264 1.661.692a2.34 2.34 0 01.692 1.664z" fill="none" stroke="#141414" stroke-width=".706" stroke-linecap="round" stroke-linejoin="round" stroke-miterlimit="10"/><path d="M6.564 12.832v-1.048a.46.46 0 10-.921 0v1.048a.916.916 0 00.462 1.711.92.92 0 00.917-.92.91.91 0 00-.458-.79z" fill="none" stroke="#141414" stroke-width=".706" stroke-linecap="round" stroke-linejoin="round" stroke-miterlimit="10"/></svg>